# xmcd
#
# Track frame offsets: 
#        150
#        20786
#        38467
#        50467
#        73049
#        88941
#        104013
#        124991
#        142958
#        162349
#        179712
#        199006
#
# Disc length: 2964 seconds
#
# Revision: 0
# Processed by: cddbd v1.5.2PL0 Copyright (c) Steve Scherf et al.
# Submitted via: ExactAudioCopy v1.0b3
#
DISCID=b10b920c
DTITLE=Rich Hall - Waitin' On A Grammy
DYEAR=2013
DGENRE=Country
TTITLE0=Mosque
TTITLE1=Bob Dylan (Is Getting Back Together)
TTITLE2=Carrie (Live)
TTITLE3=Take Me Back To Rotherham (Live)
TTITLE4=Roberta
TTITLE5=Tight Wranglers
TTITLE6=Atheist Cowboy
TTITLE7=Alligator Bay
TTITLE8=Give Me Back My Whisky (Live)
TTITLE9=From Behind
TTITLE10=Williams
TTITLE11=Broadband (Live)
EXTD=
EXTT0=
EXTT1=
EXTT2=
EXTT3=
EXTT4=
EXTT5=
EXTT6=
EXTT7=
EXTT8=
EXTT9=
EXTT10=
EXTT11=
PLAYORDER=
